<?xml version="1.0" encoding="iso-8859-1"?>
<svg height="100px" width="100px" version="1.1" id="Layer_1" xmlns="http://www.w3.org/2000/svg" xmlns:xlink="http://www.w3.org/1999/xlink" 
	 viewBox="0 0 512 512" xml:space="preserve">
<path style="fill:#FFFFFF;" d="M305.882,268.96c0.03-0.118,0.057-0.239,0.086-0.357c0.159-0.629,0.304-1.263,0.438-1.901
	c0.045-0.211,0.089-0.421,0.131-0.632c0.126-0.638,0.241-1.28,0.343-1.927c0.021-0.127,0.044-0.254,0.064-0.381
	c0.117-0.763,0.212-1.533,0.294-2.307c0.022-0.194,0.036-0.389,0.055-0.584c0.056-0.604,0.103-1.213,0.138-1.823
	c0.013-0.223,0.026-0.446,0.037-0.67c0.036-0.788,0.06-1.579,0.06-2.377c0-2.669-0.203-5.288-0.594-7.848
	c-3.779-24.734-25.144-43.679-50.934-43.679s-47.154,18.945-50.934,43.679c-0.39,2.558-0.594,5.179-0.594,7.848
	c0,0.798,0.025,1.589,0.06,2.377c0.011,0.225,0.025,0.447,0.037,0.67c0.036,0.61,0.082,1.219,0.138,1.823
	c0.019,0.194,0.033,0.39,0.055,0.584c0.081,0.774,0.177,1.544,0.293,2.307c0.019,0.127,0.043,0.254,0.064,0.381
	c0.104,0.647,0.217,1.289,0.343,1.927c0.042,0.212,0.085,0.422,0.131,0.632c0.134,0.638,0.281,1.272,0.438,1.901
	c0.029,0.119,0.056,0.24,0.086,0.357c0.168,0.65,0.345,1.294,0.539,1.933l0.019,0.031c2.556,8.459,7.229,15.995,13.403,22.002
	l0.027,0.045c0.231,0.225,0.473,0.436,0.708,0.656c0.258,0.243,0.515,0.486,0.78,0.722c0.343,0.309,0.696,0.609,1.048,0.908
	c0.271,0.23,0.541,0.463,0.817,0.688c0.356,0.291,0.721,0.572,1.086,0.854c0.283,0.219,0.565,0.44,0.854,0.654
	c0.369,0.273,0.746,0.536,1.124,0.8c0.295,0.206,0.586,0.415,0.885,0.614c0.383,0.256,0.776,0.501,1.167,0.747
	c0.303,0.192,0.603,0.386,0.912,0.571c0.396,0.239,0.8,0.464,1.203,0.692c0.314,0.178,0.625,0.359,0.943,0.531
	c0.407,0.219,0.823,0.424,1.235,0.632c0.325,0.163,0.647,0.331,0.974,0.488c0.419,0.2,0.846,0.385,1.272,0.574
	c0.332,0.148,0.66,0.3,0.995,0.44c0.431,0.18,0.87,0.345,1.306,0.515c0.339,0.131,0.675,0.269,1.017,0.393
	c0.442,0.16,0.891,0.304,1.337,0.452c0.345,0.114,0.69,0.236,1.04,0.344c0.456,0.14,0.918,0.263,1.376,0.391
	c0.35,0.097,0.696,0.202,1.048,0.291c0.471,0.12,0.947,0.221,1.421,0.328c0.351,0.079,0.698,0.166,1.053,0.238
	c0.487,0.098,0.979,0.177,1.469,0.262c0.35,0.06,0.696,0.131,1.047,0.184c0.516,0.078,1.038,0.136,1.558,0.198
	c0.334,0.04,0.663,0.091,0.999,0.124c0.58,0.058,1.166,0.094,1.751,0.134c0.282,0.018,0.559,0.049,0.841,0.063
	c0.87,0.044,1.746,0.066,2.627,0.066c0.881,0,1.757-0.023,2.627-0.066c0.283-0.014,0.56-0.044,0.841-0.063
	c0.585-0.039,1.171-0.074,1.751-0.134c0.336-0.033,0.665-0.084,0.999-0.124c0.519-0.063,1.043-0.12,1.558-0.198
	c0.351-0.053,0.697-0.123,1.047-0.184c0.49-0.085,0.982-0.164,1.469-0.262c0.353-0.071,0.701-0.159,1.052-0.238
	c0.474-0.107,0.951-0.208,1.421-0.328c0.352-0.09,0.697-0.194,1.048-0.291c0.46-0.127,0.922-0.25,1.376-0.391
	c0.35-0.108,0.694-0.229,1.04-0.344c0.447-0.148,0.896-0.293,1.337-0.452c0.342-0.124,0.679-0.261,1.017-0.393
	c0.436-0.168,0.875-0.335,1.305-0.515c0.338-0.14,0.666-0.294,0.999-0.441c0.424-0.188,0.851-0.374,1.27-0.573
	c0.328-0.157,0.65-0.325,0.974-0.488c0.412-0.207,0.828-0.413,1.234-0.632c0.318-0.172,0.629-0.353,0.943-0.531
	c0.403-0.228,0.806-0.453,1.203-0.692c0.308-0.185,0.609-0.38,0.912-0.571c0.391-0.246,0.783-0.491,1.167-0.747
	c0.299-0.2,0.59-0.408,0.885-0.614c0.378-0.263,0.755-0.526,1.124-0.8c0.289-0.214,0.571-0.435,0.854-0.654
	c0.365-0.282,0.73-0.562,1.086-0.854c0.276-0.225,0.546-0.458,0.817-0.688c0.352-0.299,0.704-0.599,1.048-0.908
	c0.264-0.236,0.521-0.48,0.78-0.722c0.235-0.22,0.477-0.432,0.708-0.656l0.027-0.045c6.174-6.007,10.847-13.542,13.403-22.002
	l0.018-0.031C305.535,270.254,305.712,269.609,305.882,268.96z"/>
<path style="opacity:0.1;fill:#231F20;enable-background:new    ;" d="M264.45,306.76c-0.49-0.085-0.982-0.164-1.469-0.262
	c-0.353-0.071-0.701-0.159-1.053-0.237c-0.474-0.107-0.951-0.208-1.421-0.328c-0.352-0.09-0.697-0.194-1.048-0.291
	c-0.46-0.127-0.922-0.25-1.376-0.391c-0.35-0.108-0.694-0.229-1.04-0.344c-0.447-0.148-0.896-0.293-1.337-0.452
	c-0.342-0.124-0.678-0.261-1.017-0.393c-0.436-0.169-0.875-0.335-1.306-0.515c-0.336-0.14-0.663-0.293-0.995-0.44
	c-0.425-0.189-0.853-0.375-1.272-0.574c-0.328-0.158-0.65-0.325-0.974-0.488c-0.412-0.207-0.828-0.413-1.235-0.632
	c-0.318-0.172-0.629-0.353-0.943-0.531c-0.403-0.228-0.806-0.453-1.203-0.692c-0.308-0.185-0.608-0.38-0.912-0.571
	c-0.391-0.246-0.784-0.491-1.167-0.747c-0.299-0.2-0.59-0.408-0.885-0.614c-0.378-0.263-0.755-0.526-1.124-0.8
	c-0.289-0.214-0.571-0.435-0.854-0.654c-0.365-0.282-0.73-0.562-1.086-0.854c-0.276-0.225-0.546-0.458-0.817-0.688
	c-0.352-0.299-0.704-0.599-1.048-0.908c-0.264-0.236-0.521-0.48-0.78-0.722c-0.235-0.22-0.477-0.432-0.708-0.656l-0.027-0.045
	c-6.174-6.007-10.847-13.542-13.403-22.002l-0.019-0.031c-0.193-0.639-0.37-1.284-0.539-1.933c-0.03-0.118-0.057-0.239-0.086-0.357
	c-0.158-0.629-0.304-1.263-0.438-1.901c-0.045-0.211-0.089-0.421-0.131-0.632c-0.126-0.638-0.241-1.28-0.343-1.927
	c-0.021-0.127-0.044-0.254-0.064-0.381c-0.115-0.763-0.212-1.533-0.293-2.307c-0.022-0.194-0.036-0.389-0.055-0.584
	c-0.056-0.605-0.103-1.213-0.138-1.823c-0.013-0.223-0.026-0.446-0.037-0.67c-0.036-0.788-0.06-1.579-0.06-2.377
	c0-2.669,0.204-5.288,0.594-7.848c3.349-21.91,20.498-39.267,42.298-42.947c-2.81-0.474-5.691-0.733-8.636-0.733
	c-25.79,0-47.154,18.945-50.934,43.68c-0.39,2.558-0.594,5.179-0.594,7.848c0,0.798,0.025,1.589,0.06,2.377
	c0.011,0.225,0.025,0.447,0.037,0.67c0.036,0.61,0.082,1.219,0.138,1.823c0.019,0.194,0.033,0.39,0.055,0.584
	c0.081,0.774,0.177,1.544,0.293,2.307c0.019,0.127,0.043,0.254,0.064,0.381c0.104,0.647,0.217,1.289,0.343,1.927
	c0.042,0.212,0.085,0.422,0.131,0.632c0.134,0.638,0.281,1.272,0.438,1.901c0.029,0.119,0.056,0.24,0.086,0.357
	c0.168,0.65,0.345,1.294,0.539,1.933l0.019,0.031c2.556,8.459,7.229,15.995,13.403,22.002l0.027,0.045
	c0.231,0.225,0.473,0.436,0.708,0.656c0.258,0.243,0.515,0.486,0.78,0.722c0.343,0.309,0.696,0.609,1.048,0.908
	c0.271,0.23,0.541,0.463,0.817,0.688c0.356,0.291,0.721,0.572,1.086,0.854c0.283,0.219,0.565,0.44,0.854,0.654
	c0.369,0.273,0.746,0.537,1.124,0.8c0.295,0.206,0.586,0.415,0.885,0.614c0.383,0.256,0.776,0.501,1.167,0.747
	c0.303,0.192,0.603,0.386,0.912,0.571c0.396,0.239,0.8,0.464,1.203,0.692c0.314,0.178,0.625,0.359,0.943,0.531
	c0.407,0.219,0.823,0.424,1.235,0.632c0.325,0.163,0.647,0.331,0.974,0.488c0.419,0.2,0.846,0.385,1.272,0.574
	c0.332,0.148,0.66,0.3,0.995,0.44c0.431,0.18,0.87,0.345,1.306,0.515c0.339,0.131,0.675,0.269,1.017,0.393
	c0.441,0.16,0.891,0.304,1.337,0.452c0.345,0.114,0.69,0.236,1.04,0.344c0.456,0.14,0.918,0.263,1.376,0.391
	c0.35,0.097,0.696,0.202,1.048,0.291c0.471,0.12,0.947,0.221,1.421,0.328c0.351,0.079,0.698,0.166,1.053,0.237
	c0.487,0.098,0.979,0.177,1.469,0.262c0.35,0.06,0.696,0.131,1.047,0.184c0.516,0.078,1.038,0.136,1.558,0.198
	c0.334,0.04,0.663,0.091,0.999,0.124c0.58,0.058,1.166,0.094,1.751,0.134c0.282,0.018,0.559,0.049,0.841,0.063
	c0.87,0.044,1.746,0.066,2.627,0.066c0.881,0,1.757-0.023,2.628-0.066c0.283-0.014,0.56-0.044,0.841-0.063
	c0.585-0.039,1.171-0.074,1.751-0.134c0.336-0.033,0.665-0.084,0.999-0.124c0.519-0.063,1.043-0.12,1.558-0.198
	c0.289-0.043,0.574-0.099,0.86-0.151C264.574,306.782,264.512,306.771,264.45,306.76z"/>
<g>
	<path style="fill:#FFFFFF;" d="M195.468,357.783c-52.252,0-101.35-20.321-138.248-57.22C20.32,263.664,0,214.567,0,162.316
		c0-4.471,3.625-8.096,8.096-8.096s8.096,3.625,8.096,8.096c0,98.852,80.423,179.275,179.276,179.275
		c4.471,0,8.096,3.625,8.096,8.096S199.939,357.783,195.468,357.783z"/>
	<path style="fill:#FFFFFF;" d="M503.904,357.783c-4.471,0-8.096-3.625-8.096-8.096c0-98.852-80.423-179.275-179.276-179.275
		c-4.471,0-8.096-3.625-8.096-8.096c0-4.471,3.625-8.096,8.096-8.096c52.252,0,101.35,20.32,138.248,57.22
		C491.679,248.337,512,297.435,512,349.686C512,354.158,508.375,357.783,503.904,357.783z"/>
	<path style="fill:#FFFFFF;" d="M146.952,428.068c-52.183,0-101.269-20.348-138.216-57.296c-3.163-3.162-3.163-8.288,0-11.449
		c3.161-3.162,8.288-3.162,11.448,0c69.899,69.898,183.635,69.897,253.535,0c3.163-3.162,8.288-3.162,11.45,0
		c3.162,3.162,3.162,8.288,0,11.449C248.221,407.721,199.135,428.068,146.952,428.068z"/>
	<path style="fill:#FFFFFF;" d="M232.557,155.048c-2.073,0-4.144-0.79-5.726-2.372c-3.162-3.162-3.162-8.288,0-11.449
		c36.949-36.948,86.034-57.296,138.217-57.296s101.268,20.348,138.215,57.296c3.163,3.162,3.163,8.288,0,11.449
		c-3.161,3.162-8.288,3.162-11.448,0c-69.899-69.898-183.634-69.898-253.533,0C236.7,154.257,234.629,155.048,232.557,155.048z"/>
	<path style="fill:#FFFFFF;" d="M162.314,511.998c-4.471,0-8.096-3.625-8.096-8.096c0-4.471,3.625-8.096,8.096-8.096
		c98.852,0,179.276-80.422,179.277-179.275c0-4.471,3.625-8.096,8.096-8.096l0,0c4.472,0,8.096,3.625,8.096,8.096
		c0,52.252-20.321,101.349-57.222,138.247C263.663,491.678,214.566,511.998,162.314,511.998z"/>
	<path style="fill:#FFFFFF;" d="M162.314,203.565L162.314,203.565c-4.472,0-8.096-3.625-8.096-8.096
		c0.001-52.253,20.323-101.35,57.222-138.25C248.336,20.323,297.433,0.002,349.68,0.002c4.46,0.03,8.103,3.622,8.103,8.096
		c0,4.471-3.625,8.096-8.096,8.096l0,0c-47.926-0.002-92.957,18.634-126.797,52.475c-33.841,33.84-52.477,78.872-52.478,126.799
		C170.41,199.94,166.785,203.565,162.314,203.565z"/>
	<path style="fill:#FFFFFF;" d="M365.047,505.636c-2.073,0-4.144-0.79-5.725-2.372c-3.163-3.162-3.163-8.288,0-11.449
		c69.898-69.899,69.899-183.635,0.001-253.534c-3.162-3.162-3.162-8.288,0.001-11.449c3.162-3.162,8.287-3.162,11.449,0
		c36.947,36.948,57.294,86.034,57.293,138.216c0,52.183-20.348,101.269-57.296,138.217
		C369.191,504.845,367.119,505.636,365.047,505.636z"/>
	<path style="fill:#FFFFFF;" d="M146.953,287.541c-2.073,0-4.144-0.79-5.726-2.372c-36.947-36.949-57.295-86.036-57.295-138.218
		S104.281,45.683,141.229,8.734c3.161-3.162,8.288-3.162,11.448,0c3.163,3.162,3.163,8.288,0,11.449
		c-69.897,69.9-69.897,183.636,0.002,253.537c3.162,3.162,3.162,8.288-0.001,11.449C151.098,286.75,149.025,287.541,146.953,287.541
		z"/>
</g>
</svg>