<svg width="4976" height="480" viewBox="0 0 4976 480" fill="none" xmlns="http://www.w3.org/2000/svg">
<rect x="278.5" y="164.5" width="355" height="39" rx="19.5" fill="black"/>
<rect x="278.5" y="164.5" width="355" height="39" rx="19.5" stroke="black"/>
<rect x="602.5" y="103.5" width="164" height="39" rx="19.5" fill="black"/>
<rect x="602.5" y="103.5" width="164" height="39" rx="19.5" stroke="black"/>
<rect x="380.5" y="237.5" width="529" height="39" rx="19.5" fill="black"/>
<rect x="380.5" y="237.5" width="529" height="39" rx="19.5" stroke="black"/>
<rect x="0.5" y="422.5" width="379" height="39" rx="19.5" fill="black"/>
<rect x="0.5" y="422.5" width="379" height="39" rx="19.5" stroke="black"/>
<rect x="993.5" y="237.5" width="288" height="39" rx="19.5" fill="black"/>
<rect x="993.5" y="237.5" width="288" height="39" rx="19.5" stroke="black"/>
<rect x="92.5" y="123.5" width="73" height="39" rx="19.5" fill="black"/>
<rect x="92.5" y="123.5" width="73" height="39" rx="19.5" stroke="black"/>
<rect x="1490.5" y="124.5" width="120" height="39" rx="19.5" fill="black"/>
<rect x="1490.5" y="124.5" width="120" height="39" rx="19.5" stroke="black"/>
<rect x="45.5" y="340.5" width="120" height="39" rx="19.5" fill="black"/>
<rect x="45.5" y="340.5" width="120" height="39" rx="19.5" stroke="black"/>
<rect x="1403.5" y="432.5" width="226" height="39" rx="19.5" fill="black"/>
<rect x="1403.5" y="432.5" width="226" height="39" rx="19.5" stroke="black"/>
<rect x="1500.5" y="360.5" width="189" height="39" rx="19.5" fill="black"/>
<rect x="1500.5" y="360.5" width="189" height="39" rx="19.5" stroke="black"/>
<rect x="144.5" y="204.5" width="92" height="39" rx="19.5" fill="black"/>
<rect x="144.5" y="204.5" width="92" height="39" rx="19.5" stroke="black"/>
<rect x="873.5" y="72.5" width="73" height="39" rx="19.5" fill="black"/>
<rect x="873.5" y="72.5" width="73" height="39" rx="19.5" stroke="black"/>
<rect x="1365.5" y="260.5" width="288" height="39" rx="19.5" fill="black"/>
<rect x="1365.5" y="260.5" width="288" height="39" rx="19.5" stroke="black"/>
<rect x="1303.5" y="164.5" width="122" height="39" rx="19.5" fill="black"/>
<rect x="1303.5" y="164.5" width="122" height="39" rx="19.5" stroke="black"/>
<rect x="1253.5" y="340.5" width="236" height="39" rx="19.5" fill="black"/>
<rect x="1253.5" y="340.5" width="236" height="39" rx="19.5" stroke="black"/>
<rect x="16.5" y="277.5" width="261" height="39" rx="19.5" fill="black"/>
<rect x="16.5" y="277.5" width="261" height="39" rx="19.5" stroke="black"/>
<rect x="543.5" y="412.5" width="366" height="39" rx="19.5" fill="black"/>
<rect x="543.5" y="412.5" width="366" height="39" rx="19.5" stroke="black"/>
<rect x="333.5" y="360.5" width="179" height="39" rx="19.5" fill="black"/>
<rect x="333.5" y="360.5" width="179" height="39" rx="19.5" stroke="black"/>
<rect x="691.5" y="320.5" width="151" height="39" rx="19.5" fill="black"/>
<rect x="691.5" y="320.5" width="151" height="39" rx="19.5" stroke="black"/>
<rect x="884.5" y="144.5" width="355" height="39" rx="19.5" fill="black"/>
<rect x="884.5" y="144.5" width="355" height="39" rx="19.5" stroke="black"/>
<rect x="1062.5" y="40.5" width="529" height="39" rx="19.5" fill="black"/>
<rect x="1062.5" y="40.5" width="529" height="39" rx="19.5" stroke="black"/>
<rect x="1023.5" y="400.5" width="229" height="39" rx="19.5" fill="black"/>
<rect x="1023.5" y="400.5" width="229" height="39" rx="19.5" stroke="black"/>
<rect x="796.5" y="0.5" width="179" height="39" rx="19.5" fill="black"/>
<rect x="796.5" y="0.5" width="179" height="39" rx="19.5" stroke="black"/>
<rect x="1062.5" y="300.5" width="151" height="39" rx="19.5" fill="black"/>
<rect x="1062.5" y="300.5" width="151" height="39" rx="19.5" stroke="black"/>
<rect x="92.5" y="63.5" width="350" height="39" rx="19.5" fill="black"/>
<rect x="92.5" y="63.5" width="350" height="39" rx="19.5" stroke="black"/>
<rect x="485.5" y="0.5" width="97" height="39" rx="19.5" fill="black"/>
<rect x="485.5" y="0.5" width="97" height="39" rx="19.5" stroke="black"/>
<rect x="3564.5" y="164.5" width="355" height="39" rx="19.5" fill="black"/>
<rect x="3564.5" y="164.5" width="355" height="39" rx="19.5" stroke="black"/>
<rect x="3888.5" y="103.5" width="164" height="39" rx="19.5" fill="black"/>
<rect x="3888.5" y="103.5" width="164" height="39" rx="19.5" stroke="black"/>
<rect x="3666.5" y="237.5" width="529" height="39" rx="19.5" fill="black"/>
<rect x="3666.5" y="237.5" width="529" height="39" rx="19.5" stroke="black"/>
<rect x="3286.5" y="422.5" width="379" height="39" rx="19.5" fill="black"/>
<rect x="3286.5" y="422.5" width="379" height="39" rx="19.5" stroke="black"/>
<rect x="4279.5" y="237.5" width="288" height="39" rx="19.5" fill="black"/>
<rect x="4279.5" y="237.5" width="288" height="39" rx="19.5" stroke="black"/>
<rect x="3378.5" y="123.5" width="73" height="39" rx="19.5" fill="black"/>
<rect x="3378.5" y="123.5" width="73" height="39" rx="19.5" stroke="black"/>
<rect x="4776.5" y="124.5" width="120" height="39" rx="19.5" fill="black"/>
<rect x="4776.5" y="124.5" width="120" height="39" rx="19.5" stroke="black"/>
<rect x="3331.5" y="340.5" width="120" height="39" rx="19.5" fill="black"/>
<rect x="3331.5" y="340.5" width="120" height="39" rx="19.5" stroke="black"/>
<rect x="4689.5" y="432.5" width="226" height="39" rx="19.5" fill="black"/>
<rect x="4689.5" y="432.5" width="226" height="39" rx="19.5" stroke="black"/>
<rect x="4786.5" y="360.5" width="189" height="39" rx="19.5" fill="black"/>
<rect x="4786.5" y="360.5" width="189" height="39" rx="19.5" stroke="black"/>
<rect x="3430.5" y="204.5" width="92" height="39" rx="19.5" fill="black"/>
<rect x="3430.5" y="204.5" width="92" height="39" rx="19.5" stroke="black"/>
<rect x="4159.5" y="72.5" width="73" height="39" rx="19.5" fill="black"/>
<rect x="4159.5" y="72.5" width="73" height="39" rx="19.5" stroke="black"/>
<rect x="4651.5" y="260.5" width="288" height="39" rx="19.5" fill="black"/>
<rect x="4651.5" y="260.5" width="288" height="39" rx="19.5" stroke="black"/>
<rect x="4589.5" y="164.5" width="122" height="39" rx="19.5" fill="black"/>
<rect x="4589.5" y="164.5" width="122" height="39" rx="19.5" stroke="black"/>
<rect x="4539.5" y="340.5" width="236" height="39" rx="19.5" fill="black"/>
<rect x="4539.5" y="340.5" width="236" height="39" rx="19.5" stroke="black"/>
<rect x="3302.5" y="277.5" width="261" height="39" rx="19.5" fill="black"/>
<rect x="3302.5" y="277.5" width="261" height="39" rx="19.5" stroke="black"/>
<rect x="3829.5" y="412.5" width="366" height="39" rx="19.5" fill="black"/>
<rect x="3829.5" y="412.5" width="366" height="39" rx="19.5" stroke="black"/>
<rect x="3619.5" y="360.5" width="179" height="39" rx="19.5" fill="black"/>
<rect x="3619.5" y="360.5" width="179" height="39" rx="19.5" stroke="black"/>
<rect x="3977.5" y="320.5" width="151" height="39" rx="19.5" fill="black"/>
<rect x="3977.5" y="320.5" width="151" height="39" rx="19.5" stroke="black"/>
<rect x="4170.5" y="144.5" width="355" height="39" rx="19.5" fill="black"/>
<rect x="4170.5" y="144.5" width="355" height="39" rx="19.5" stroke="black"/>
<rect x="4348.5" y="40.5" width="529" height="39" rx="19.5" fill="black"/>
<rect x="4348.5" y="40.5" width="529" height="39" rx="19.5" stroke="black"/>
<rect x="4309.5" y="400.5" width="229" height="39" rx="19.5" fill="black"/>
<rect x="4309.5" y="400.5" width="229" height="39" rx="19.5" stroke="black"/>
<rect x="4082.5" y="0.5" width="179" height="39" rx="19.5" fill="black"/>
<rect x="4082.5" y="0.5" width="179" height="39" rx="19.5" stroke="black"/>
<rect x="4348.5" y="300.5" width="151" height="39" rx="19.5" fill="black"/>
<rect x="4348.5" y="300.5" width="151" height="39" rx="19.5" stroke="black"/>
<rect x="3378.5" y="63.5" width="350" height="39" rx="19.5" fill="black"/>
<rect x="3378.5" y="63.5" width="350" height="39" rx="19.5" stroke="black"/>
<rect x="3771.5" y="0.5" width="97" height="39" rx="19.5" fill="black"/>
<rect x="3771.5" y="0.5" width="97" height="39" rx="19.5" stroke="black"/>
<rect x="2705.5" y="276.5" width="355" height="39" rx="19.5" fill="black"/>
<rect x="2705.5" y="276.5" width="355" height="39" rx="19.5" stroke="black"/>
<rect x="2572.5" y="337.5" width="164" height="39" rx="19.5" fill="black"/>
<rect x="2572.5" y="337.5" width="164" height="39" rx="19.5" stroke="black"/>
<rect x="2429.5" y="203.5" width="529" height="39" rx="19.5" fill="black"/>
<rect x="2429.5" y="203.5" width="529" height="39" rx="19.5" stroke="black"/>
<rect x="2959.5" y="18.5" width="379" height="39" rx="19.5" fill="black"/>
<rect x="2959.5" y="18.5" width="379" height="39" rx="19.5" stroke="black"/>
<rect x="2057.5" y="203.5" width="288" height="39" rx="19.5" fill="black"/>
<rect x="2057.5" y="203.5" width="288" height="39" rx="19.5" stroke="black"/>
<rect x="3173.5" y="317.5" width="73" height="39" rx="19.5" fill="black"/>
<rect x="3173.5" y="317.5" width="73" height="39" rx="19.5" stroke="black"/>
<rect x="1728.5" y="316.5" width="120" height="39" rx="19.5" fill="black"/>
<rect x="1728.5" y="316.5" width="120" height="39" rx="19.5" stroke="black"/>
<rect x="3173.5" y="100.5" width="120" height="39" rx="19.5" fill="black"/>
<rect x="3173.5" y="100.5" width="120" height="39" rx="19.5" stroke="black"/>
<rect x="1709.5" y="8.5" width="226" height="39" rx="19.5" fill="black"/>
<rect x="1709.5" y="8.5" width="226" height="39" rx="19.5" stroke="black"/>
<rect x="1649.5" y="80.5" width="189" height="39" rx="19.5" fill="black"/>
<rect x="1649.5" y="80.5" width="189" height="39" rx="19.5" stroke="black"/>
<rect x="3102.5" y="236.5" width="92" height="39" rx="19.5" fill="black"/>
<rect x="3102.5" y="236.5" width="92" height="39" rx="19.5" stroke="black"/>
<rect x="2392.5" y="368.5" width="73" height="39" rx="19.5" fill="black"/>
<rect x="2392.5" y="368.5" width="73" height="39" rx="19.5" stroke="black"/>
<rect x="1685.5" y="180.5" width="288" height="39" rx="19.5" fill="black"/>
<rect x="1685.5" y="180.5" width="288" height="39" rx="19.5" stroke="black"/>
<rect x="1913.5" y="276.5" width="122" height="39" rx="19.5" fill="black"/>
<rect x="1913.5" y="276.5" width="122" height="39" rx="19.5" stroke="black"/>
<rect x="1849.5" y="100.5" width="236" height="39" rx="19.5" fill="black"/>
<rect x="1849.5" y="100.5" width="236" height="39" rx="19.5" stroke="black"/>
<rect x="3061.5" y="163.5" width="261" height="39" rx="19.5" fill="black"/>
<rect x="3061.5" y="163.5" width="261" height="39" rx="19.5" stroke="black"/>
<rect x="2429.5" y="28.5" width="366" height="39" rx="19.5" fill="black"/>
<rect x="2429.5" y="28.5" width="366" height="39" rx="19.5" stroke="black"/>
<rect x="2826.5" y="80.5" width="179" height="39" rx="19.5" fill="black"/>
<rect x="2826.5" y="80.5" width="179" height="39" rx="19.5" stroke="black"/>
<rect x="2496.5" y="120.5" width="151" height="39" rx="19.5" fill="black"/>
<rect x="2496.5" y="120.5" width="151" height="39" rx="19.5" stroke="black"/>
<rect x="2099.5" y="296.5" width="355" height="39" rx="19.5" fill="black"/>
<rect x="2099.5" y="296.5" width="355" height="39" rx="19.5" stroke="black"/>
<rect x="1747.5" y="400.5" width="529" height="39" rx="19.5" fill="black"/>
<rect x="1747.5" y="400.5" width="529" height="39" rx="19.5" stroke="black"/>
<rect x="2086.5" y="40.5" width="229" height="39" rx="19.5" fill="black"/>
<rect x="2086.5" y="40.5" width="229" height="39" rx="19.5" stroke="black"/>
<rect x="2363.5" y="440.5" width="179" height="39" rx="19.5" fill="black"/>
<rect x="2363.5" y="440.5" width="179" height="39" rx="19.5" stroke="black"/>
<rect x="2125.5" y="140.5" width="151" height="39" rx="19.5" fill="black"/>
<rect x="2125.5" y="140.5" width="151" height="39" rx="19.5" stroke="black"/>
<rect x="2896.5" y="377.5" width="350" height="39" rx="19.5" fill="black"/>
<rect x="2896.5" y="377.5" width="350" height="39" rx="19.5" stroke="black"/>
<rect x="2756.5" y="440.5" width="97" height="39" rx="19.5" fill="black"/>
<rect x="2756.5" y="440.5" width="97" height="39" rx="19.5" stroke="black"/>
</svg>
